<svg aria-hidden="true" xmlns="http://www.w3.org/2000/svg" xmlns:xlink="http://www.w3.org/1999/xlink"><symbol viewBox="0 0 20 20" id="favorite" xmlns="http://www.w3.org/2000/svg">
<path d="M18.3644 2.45457C17.33 1.34265 15.8804 0.709981 14.3617 0.707636C12.8417 0.709395 11.3906 1.34173 10.3546 2.45386L10.0015 2.82698L9.64836 2.45386C7.59251 0.241198 4.13215 0.114128 1.91953 2.16998C1.82148 2.26112 1.72679 2.35577 1.63565 2.45386C-0.545218 4.80619 -0.545218 8.44162 1.63565 10.794L9.48255 19.069C9.75403 19.3556 10.2064 19.3679 10.493 19.0964C10.5024 19.0875 10.5115 19.0784 10.5204 19.069L18.3645 10.794C20.5452 8.44187 20.5452 4.80665 18.3644 2.45457ZM17.3302 9.80969H17.3294L10.0015 17.5386L2.67282 9.80969C1.00676 8.01229 1.00676 5.23481 2.67282 3.43741C4.1858 1.79757 6.74172 1.69475 8.38156 3.20773C8.46118 3.28119 8.53778 3.35779 8.61124 3.43741L9.48255 4.35663C9.76969 4.64193 10.2333 4.64193 10.5204 4.35663L11.3917 3.43812C12.9047 1.79828 15.4606 1.69546 17.1005 3.20844C17.1801 3.2819 17.2567 3.35851 17.3302 3.43812C19.0107 5.23837 19.023 8.02092 17.3302 9.80969Z"/>
</symbol><symbol viewBox="0 0 7 13" id="fb" xmlns="http://www.w3.org/2000/svg">
<path fill-rule="evenodd" clip-rule="evenodd" d="M6.10837 2.24446C5.78831 2.14321 5.42023 2.0757 5.08417 2.0757C4.66809 2.0757 3.77191 2.36259 3.77191 2.91948V4.25266H5.90033V6.49712H3.77191V12.6905H1.6275V6.49712H0.571289V4.25266H1.6275V3.12199C1.6275 1.41755 2.36364 0 4.13999 0C4.7481 0 5.83632 0.0337513 6.42843 0.253134L6.10837 2.24446Z"/>
</symbol><symbol viewBox="0 0 16 16" id="instagram" xmlns="http://www.w3.org/2000/svg">
<g clip-path="url(#cclip0_141_7)">
<path d="M13.6562 0H2.34375C1.05156 0 0 1.05156 0 2.34375V13.6562C0 14.9487 1.05156 16 2.34375 16H13.6562C14.9487 16 16 14.9487 16 13.6562V2.34375C16 1.05156 14.9487 0 13.6562 0ZM15.0625 13.6562C15.0625 14.4316 14.4316 15.0625 13.6562 15.0625H2.34375C1.56844 15.0625 0.9375 14.4316 0.9375 13.6562V2.34375C0.9375 1.56844 1.56844 0.9375 2.34375 0.9375H13.6562C14.4316 0.9375 15.0625 1.56844 15.0625 2.34375V13.6562Z"/>
<path d="M13.1562 1.90625C12.6394 1.90625 12.2188 2.32687 12.2188 2.84375C12.2188 3.36063 12.6394 3.78125 13.1562 3.78125C13.6731 3.78125 14.0938 3.36063 14.0938 2.84375C14.0938 2.32687 13.6731 1.90625 13.1562 1.90625Z"/>
<path d="M8 3.78125C5.67375 3.78125 3.78125 5.67375 3.78125 8C3.78125 10.3263 5.67375 12.2188 8 12.2188C10.3263 12.2188 12.2188 10.3263 12.2188 8C12.2188 5.67375 10.3263 3.78125 8 3.78125ZM8 11.2812C6.19062 11.2812 4.71875 9.80937 4.71875 8C4.71875 6.19062 6.19062 4.71875 8 4.71875C9.80937 4.71875 11.2812 6.19062 11.2812 8C11.2812 9.80937 9.80937 11.2812 8 11.2812Z"/>
</g>
<defs>
<clipPath id="cclip0_141_7">
<rect width="16" height="16"/>
</clipPath>
</defs>
</symbol><symbol viewBox="0 0 21 18" id="mail" xmlns="http://www.w3.org/2000/svg">
<path d="M4 6L9.4 10.05C9.75556 10.3167 10.2444 10.3167 10.6 10.05L16 6" stroke-linecap="round"/>
<rect x="0.5" y="0.5" width="20" height="17" rx="4.5"/>
</symbol><symbol viewBox="0 0 16 10" id="slider-arrow" xmlns="http://www.w3.org/2000/svg">
<path fill-rule="evenodd" clip-rule="evenodd" d="M8 0.0856934L15.7071 7.7928C16.0976 8.18332 16.0976 8.81649 15.7071 9.20701C15.3166 9.59754 14.6834 9.59754 14.2929 9.20701L8 2.91412L1.70711 9.20701C1.31658 9.59754 0.683417 9.59754 0.292893 9.20701C-0.0976311 8.81649 -0.0976311 8.18332 0.292893 7.7928L8 0.0856934Z"/>
</symbol><symbol viewBox="0 0 16 13" id="twitter" xmlns="http://www.w3.org/2000/svg">
<path d="M16 1.539C15.405 1.8 14.771 1.973 14.11 2.057C14.79 1.651 15.309 1.013 15.553 0.244C14.919 0.622 14.219 0.889 13.473 1.038C12.871 0.397 12.013 0 11.077 0C9.261 0 7.799 1.474 7.799 3.281C7.799 3.541 7.821 3.791 7.875 4.029C5.148 3.896 2.735 2.589 1.114 0.598C0.831 1.089 0.665 1.651 0.665 2.256C0.665 3.392 1.25 4.399 2.122 4.982C1.595 4.972 1.078 4.819 0.64 4.578C0.64 4.588 0.64 4.601 0.64 4.614C0.64 6.208 1.777 7.532 3.268 7.837C3.001 7.91 2.71 7.945 2.408 7.945C2.198 7.945 1.986 7.933 1.787 7.889C2.212 9.188 3.418 10.143 4.852 10.174C3.736 11.047 2.319 11.573 0.785 11.573C0.516 11.573 0.258 11.561 0 11.528C1.453 12.465 3.175 13 5.032 13C11.068 13 14.368 8 14.368 3.666C14.368 3.521 14.363 3.381 14.356 3.242C15.007 2.78 15.554 2.203 16 1.539Z"/>
</symbol></svg>